<?xml version="1.0" encoding="UTF-8" standalone="no"?>
<svg
   xmlns:dc="http://purl.org/dc/elements/1.1/"
   xmlns:cc="http://creativecommons.org/ns#"
   xmlns:rdf="http://www.w3.org/1999/02/22-rdf-syntax-ns#"
   xmlns:svg="http://www.w3.org/2000/svg"
   xmlns="http://www.w3.org/2000/svg"
   xmlns:sodipodi="http://sodipodi.sourceforge.net/DTD/sodipodi-0.dtd"
   xmlns:inkscape="http://www.inkscape.org/namespaces/inkscape"
   version="1.1"
   width="600"
   height="434.2121"
   viewBox="0 0 62500.043 45230.47"
   id="svg818"
   sodipodi:docname="shunted-pot.sch.svg"
   inkscape:export-filename="/home/chase/calculators/shunted-pot/kicad/shunted-pot.sch.png"
   inkscape:export-xdpi="96"
   inkscape:export-ydpi="96"
   inkscape:version="0.92.1 r">
  <metadata
     id="metadata824">
    <rdf:RDF>
      <cc:Work
         rdf:about="">
        <dc:format>image/svg+xml</dc:format>
        <dc:type
           rdf:resource="http://purl.org/dc/dcmitype/StillImage" />
        <dc:title>SVG Picture created as shunted-pot.sch.svg date 2017/08/28 19:14:32 </dc:title>
      </cc:Work>
    </rdf:RDF>
  </metadata>
  <defs
     id="defs822" />
  <sodipodi:namedview
     pagecolor="#ffffff"
     bordercolor="#666666"
     borderopacity="1"
     objecttolerance="10"
     gridtolerance="10"
     guidetolerance="10"
     inkscape:pageopacity="0"
     inkscape:pageshadow="2"
     inkscape:window-width="1920"
     inkscape:window-height="1016"
     id="namedview820"
     showgrid="false"
     units="px"
     fit-margin-top="50"
     fit-margin-left="50"
     fit-margin-bottom="50"
     fit-margin-right="50"
     inkscape:zoom="1.5722902"
     inkscape:cx="408.15466"
     inkscape:cy="113.00574"
     inkscape:window-x="0"
     inkscape:window-y="27"
     inkscape:window-maximized="1"
     inkscape:current-layer="svg818" />
  <title
     id="title2">SVG Picture created as shunted-pot.sch.svg date 2017/08/28 19:14:32 </title>
  <desc
     id="desc4">Picture generated by Eeschema-SVG </desc>
  <g
     id="g942"
     transform="matrix(3.4813789,0,0,3.4813789,-120190.47,-94881.306)">
    <g
       id="g568"
       style="fill:#000000;fill-opacity:0;stroke:#000000;stroke-width:100;stroke-linecap:round;stroke-linejoin:round;stroke-opacity:1">
      <rect
         id="rect566"
         rx="0"
         height="2000"
         width="800"
         y="32500"
         x="41600" />
    </g>
    <g
       id="g572"
       style="fill:#000000;fill-opacity:0;stroke:#000000;stroke-width:60;stroke-linecap:round;stroke-linejoin:round;stroke-opacity:1">
      <polyline
         id="polyline570"
         points="43000,33500 42600,33500 "
         fill="none;" />
    </g>
    <g
       id="g576"
       style="fill:#000000;fill-opacity:1;stroke:#000000;stroke-width:60;stroke-linecap:round;stroke-linejoin:round;stroke-opacity:1">
      <polyline
         id="polyline574"
         points="42450,33500 42900,33300 42900,33700 "
         style="fill-rule:evenodd" />
    </g>
    <g
       id="g602"
       style="fill:#000000;fill-opacity:0;stroke:#000000;stroke-width:60;stroke-linecap:round;stroke-linejoin:round;stroke-opacity:1">
      <path
         id="path578"
         d="m 42000,32500 v -500"
         inkscape:connector-curvature="0" />
      <path
         id="path580"
         d="m 43000,33500 h 500"
         inkscape:connector-curvature="0" />
      <path
         id="path582"
         d="m 42000,34500 v 500"
         inkscape:connector-curvature="0" />
      <path
         id="path584"
         d="m 41260,33930 -240,160"
         inkscape:connector-curvature="0" />
      <path
         id="path586"
         d="m 41260,34210 h -500 v -190 l 20,-50 20,-20 50,-20 h 70 l 50,20 20,20 30,50 v 190"
         inkscape:connector-curvature="0" />
      <path
         id="path588"
         d="m 40920,33710 h 500"
         inkscape:connector-curvature="0" />
      <path
         id="path590"
         d="m 40950,33710 -30,-50 v -90 l 30,-50 20,-20 50,-30 h 140 l 50,30 20,20 30,50 v 90 l -30,50"
         inkscape:connector-curvature="0" />
      <path
         id="path592"
         d="m 41260,33190 -30,50 -20,20 -50,20 h -140 l -50,-20 -20,-20 -30,-50 v -70 l 30,-50 20,-20 50,-30 h 140 l 50,30 20,20 30,50 v 70"
         inkscape:connector-curvature="0" />
      <path
         id="path594"
         d="m 40920,32880 v -190"
         inkscape:connector-curvature="0" />
      <path
         id="path596"
         d="m 40760,32810 h 420 l 50,-20 30,-50 v -50"
         inkscape:connector-curvature="0" />
      <path
         id="path598"
         d="m 42260,33350 -240,160"
         inkscape:connector-curvature="0" />
      <path
         id="path600"
         d="m 42260,33630 h -500 v -190 l 20,-50 20,-20 50,-20 h 70 l 50,20 20,20 30,50 v 190"
         inkscape:connector-curvature="0" />
    </g>
    <g
       id="g608"
       style="fill:#000000;fill-opacity:0;stroke:#000000;stroke-width:100;stroke-linecap:round;stroke-linejoin:round;stroke-opacity:1">
      <rect
         id="rect606"
         rx="0"
         height="2000"
         width="800"
         y="30000"
         x="44100" />
    </g>
    <g
       id="g642"
       style="fill:#000000;fill-opacity:0;stroke:#000000;stroke-width:60;stroke-linecap:round;stroke-linejoin:round;stroke-opacity:1">
      <path
         id="path610"
         d="m 44500,30000 v -500"
         inkscape:connector-curvature="0" />
      <path
         id="path612"
         d="m 44500,32000 v 500"
         inkscape:connector-curvature="0" />
      <path
         id="path614"
         d="m 45560,32040 -240,160"
         inkscape:connector-curvature="0" />
      <path
         id="path616"
         d="m 45560,32320 h -500 v -190 l 20,-50 20,-20 50,-20 h 70 l 50,20 20,20 30,50 v 190"
         inkscape:connector-curvature="0" />
      <path
         id="path618"
         d="m 45220,31890 v -190"
         inkscape:connector-curvature="0" />
      <path
         id="path620"
         d="m 45060,31820 h 420 l 50,-20 30,-50 v -50"
         inkscape:connector-curvature="0" />
      <path
         id="path622"
         d="m 45560,31320 h -270 l -40,20 -30,50 v 90 l 30,50"
         inkscape:connector-curvature="0" />
      <path
         id="path624"
         d="m 45530,31320 30,40 v 120 l -30,50 -50,20 h -40 l -50,-20 -20,-50 v -120 l -30,-40"
         inkscape:connector-curvature="0" />
      <path
         id="path626"
         d="m 45220,31080 h 500"
         inkscape:connector-curvature="0" />
      <path
         id="path628"
         d="m 45250,31080 -30,-50 v -90 l 30,-50 20,-20 50,-30 h 140 l 50,30 20,20 30,50 v 90 l -30,50"
         inkscape:connector-curvature="0" />
      <path
         id="path630"
         d="m 45530,30440 30,50 v 90 l -30,50 -50,20 h -190 l -40,-20 -30,-50 v -90 l 30,-50 40,-20 h 50 l 50,230"
         inkscape:connector-curvature="0" />
      <path
         id="path632"
         d="m 45560,30200 h -340"
         inkscape:connector-curvature="0" />
      <path
         id="path634"
         d="m 45320,30200 -50,-20 -20,-30 -30,-40 v -50"
         inkscape:connector-curvature="0" />
      <path
         id="path636"
         d="m 45100,29910 -20,-20 -20,-50 v -120 l 20,-40 20,-30 50,-20 h 50 l 70,20 290,290 v -310"
         inkscape:connector-curvature="0" />
      <path
         id="path638"
         d="m 44760,30850 -240,160"
         inkscape:connector-curvature="0" />
      <path
         id="path640"
         d="m 44760,31130 h -500 v -190 l 20,-50 20,-20 50,-20 h 70 l 50,20 20,20 30,50 v 190"
         inkscape:connector-curvature="0" />
    </g>
    <g
       id="g648"
       style="fill:#000000;fill-opacity:0;stroke:#000000;stroke-width:100;stroke-linecap:round;stroke-linejoin:round;stroke-opacity:1">
      <rect
         id="rect646"
         rx="0"
         height="2000"
         width="800"
         y="35000"
         x="44100" />
    </g>
    <g
       id="g688"
       style="fill:#000000;fill-opacity:0;stroke:#000000;stroke-width:60;stroke-linecap:round;stroke-linejoin:round;stroke-opacity:1">
      <path
         id="path650"
         d="m 44500,35000 v -500"
         inkscape:connector-curvature="0" />
      <path
         id="path652"
         d="m 44500,37000 v 500"
         inkscape:connector-curvature="0" />
      <path
         id="path654"
         d="m 45560,37040 -240,160"
         inkscape:connector-curvature="0" />
      <path
         id="path656"
         d="m 45560,37320 h -500 v -190 l 20,-50 20,-20 50,-20 h 70 l 50,20 20,20 30,50 v 190"
         inkscape:connector-curvature="0" />
      <path
         id="path658"
         d="m 45220,36890 v -190"
         inkscape:connector-curvature="0" />
      <path
         id="path660"
         d="m 45060,36820 h 420 l 50,-20 30,-50 v -50"
         inkscape:connector-curvature="0" />
      <path
         id="path662"
         d="m 45560,36320 h -270 l -40,20 -30,50 v 90 l 30,50"
         inkscape:connector-curvature="0" />
      <path
         id="path664"
         d="m 45530,36320 30,40 v 120 l -30,50 -50,20 h -40 l -50,-20 -20,-50 v -120 l -30,-40"
         inkscape:connector-curvature="0" />
      <path
         id="path666"
         d="m 45220,36080 h 500"
         inkscape:connector-curvature="0" />
      <path
         id="path668"
         d="m 45250,36080 -30,-50 v -90 l 30,-50 20,-20 50,-30 h 140 l 50,30 20,20 30,50 v 90 l -30,50"
         inkscape:connector-curvature="0" />
      <path
         id="path670"
         d="m 45530,35440 30,50 v 90 l -30,50 -50,20 h -190 l -40,-20 -30,-50 v -90 l 30,-50 40,-20 h 50 l 50,230"
         inkscape:connector-curvature="0" />
      <path
         id="path672"
         d="m 45560,35200 h -340"
         inkscape:connector-curvature="0" />
      <path
         id="path674"
         d="m 45320,35200 -50,-20 -20,-30 -30,-40 v -50"
         inkscape:connector-curvature="0" />
      <path
         id="path676"
         d="m 45560,34630 v 280"
         inkscape:connector-curvature="0" />
      <path
         id="path678"
         d="m 45560,34770 h -500 l 70,50 50,50 20,40"
         inkscape:connector-curvature="0" />
      <path
         id="path680"
         d="m 44760,35850 -240,160"
         inkscape:connector-curvature="0" />
      <path
         id="path682"
         d="m 44760,36130 h -500 v -190 l 20,-50 20,-20 50,-20 h 70 l 50,20 20,20 30,50 v 190"
         inkscape:connector-curvature="0" />
      <path
         id="path684"
         d="m 43500,33500 h 4500"
         inkscape:connector-curvature="0" />
      <path
         id="path686"
         d="m 44500,32500 v 2000"
         inkscape:connector-curvature="0" />
    </g>
    <g
       id="g694"
       style="fill:#000000;fill-opacity:1;stroke:#000000;stroke-width:100;stroke-linecap:round;stroke-linejoin:round;stroke-opacity:1">
      <circle
         id="circle692"
         r="200"
         cy="33500"
         cx="44500" />
    </g>
    <g
       id="g702"
       style="fill:#000000;fill-opacity:1;stroke:#000000;stroke-width:60;stroke-linecap:round;stroke-linejoin:round;stroke-opacity:1">
      <rect
         id="rect698"
         rx="0"
         height="100"
         width="1800"
         y="33300"
         x="37600" />
      <rect
         id="rect700"
         rx="0"
         height="200"
         width="1200"
         y="33530"
         x="37880" />
    </g>
    <g
       id="g708"
       style="fill:#000000;fill-opacity:0;stroke:#000000;stroke-width:60;stroke-linecap:round;stroke-linejoin:round;stroke-opacity:1">
      <polyline
         id="polyline704"
         points="38500,33700 38500,34000 "
         fill="none;" />
      <polyline
         id="polyline706"
         points="38500,33300 38500,33000 "
         fill="none;" />
    </g>
    <g
       id="g714"
       style="fill:#000000;fill-opacity:0;stroke:#000000;stroke-width:100;stroke-linecap:round;stroke-linejoin:round;stroke-opacity:1">
      <polyline
         id="polyline710"
         points="38700,32650 39100,32650 "
         fill="none;" />
      <polyline
         id="polyline712"
         points="38900,32450 38900,32850 "
         fill="none;" />
    </g>
    <g
       id="g740"
       style="fill:#000000;fill-opacity:0;stroke:#000000;stroke-width:60;stroke-linecap:round;stroke-linejoin:round;stroke-opacity:1">
      <path
         id="path716"
         d="M 38500,33000 V 32000"
         inkscape:connector-curvature="0" />
      <path
         id="path718"
         d="m 38500,34000 v 1000"
         inkscape:connector-curvature="0" />
      <path
         id="path720"
         d="m 36050,32760 160,500 170,-500"
         inkscape:connector-curvature="0" />
      <path
         id="path722"
         d="m 36550,33260 v -340"
         inkscape:connector-curvature="0" />
      <path
         id="path724"
         d="m 36550,32760 -20,20 20,20 20,-20 -20,-20 v 40"
         inkscape:connector-curvature="0" />
      <path
         id="path726"
         d="m 36790,32920 v 340"
         inkscape:connector-curvature="0" />
      <path
         id="path728"
         d="m 36790,32970 20,-20 50,-30 h 70 l 50,30 20,40 v 270"
         inkscape:connector-curvature="0" />
      <path
         id="path730"
         d="m 36550,33760 160,500 170,-500"
         inkscape:connector-curvature="0" />
      <path
         id="path732"
         d="M 38500,32000 V 29000"
         inkscape:connector-curvature="0" />
      <path
         id="path734"
         d="m 38500,29000 h 6000"
         inkscape:connector-curvature="0" />
      <path
         id="path736"
         d="m 44500,29000 v 500"
         inkscape:connector-curvature="0" />
      <path
         id="path738"
         d="M 42000,32000 V 29000"
         inkscape:connector-curvature="0" />
    </g>
    <g
       id="g746"
       style="fill:#000000;fill-opacity:1;stroke:#000000;stroke-width:100;stroke-linecap:round;stroke-linejoin:round;stroke-opacity:1">
      <circle
         id="circle744"
         r="200"
         cy="29000"
         cx="42000" />
    </g>
    <g
       id="g758"
       style="fill:#000000;fill-opacity:0;stroke:#000000;stroke-width:60;stroke-linecap:round;stroke-linejoin:round;stroke-opacity:1">
      <path
         id="path750"
         d="m 38500,35000 v 3500"
         inkscape:connector-curvature="0" />
      <path
         id="path752"
         d="m 38500,38500 h 9500"
         inkscape:connector-curvature="0" />
      <path
         id="path754"
         d="M 44500,38500 V 37500"
         inkscape:connector-curvature="0" />
      <path
         id="path756"
         d="m 42000,35000 v 3500"
         inkscape:connector-curvature="0" />
    </g>
    <g
       id="g764"
       style="fill:#000000;fill-opacity:1;stroke:#000000;stroke-width:100;stroke-linecap:round;stroke-linejoin:round;stroke-opacity:1">
      <circle
         id="circle762"
         r="200"
         cy="38500"
         cx="42000" />
    </g>
    <g
       id="g778"
       style="fill:#000000;fill-opacity:0;stroke:#000000;stroke-width:60;stroke-linecap:round;stroke-linejoin:round;stroke-opacity:1">
      <path
         id="path770"
         d="m 47670,35500 330,1000 330,-1000"
         inkscape:connector-curvature="0" />
      <polyline
         id="polyline772"
         points="46750,37250 47250,36750 "
         fill="none;" />
      <polyline
         id="polyline774"
         points="48750,35250 49250,34750 "
         fill="none;" />
      <polyline
         id="polyline776"
         points="48750,34750 49250,34750 49250,35250 "
         fill="none;" />
    </g>
    <g
       id="g782"
       style="fill:#000000;fill-opacity:0;stroke:#000000;stroke-width:100;stroke-linecap:round;stroke-linejoin:round;stroke-opacity:1">
      <circle
         id="circle780"
         r="1000"
         cy="36000"
         cx="48000" />
    </g>
    <g
       id="g810"
       style="fill:#000000;fill-opacity:0;stroke:#000000;stroke-width:60;stroke-linecap:round;stroke-linejoin:round;stroke-opacity:1">
      <polyline
         id="polyline784"
         points="48100,34500 48300,34500 "
         fill="none;" />
      <polyline
         id="polyline786"
         points="48200,34400 48200,34600 "
         fill="none;" />
      <path
         id="path788"
         d="m 48000,37000 v 1000"
         inkscape:connector-curvature="0" />
      <path
         id="path790"
         d="M 48000,35000 V 34000"
         inkscape:connector-curvature="0" />
      <path
         id="path792"
         d="m 49430,35260 160,500 170,-500"
         inkscape:connector-curvature="0" />
      <path
         id="path794"
         d="m 50000,35760 -50,-30 -20,-20 -20,-50 v -140 l 20,-50 20,-20 50,-30 h 70 l 50,30 20,20 30,50 v 140 l -30,50 -20,20 -50,30 h -70"
         inkscape:connector-curvature="0" />
      <path
         id="path796"
         d="m 50590,35420 v 340"
         inkscape:connector-curvature="0" />
      <path
         id="path798"
         d="m 50380,35420 v 260 l 20,50 50,30 h 70 l 50,-30 20,-20"
         inkscape:connector-curvature="0" />
      <path
         id="path800"
         d="m 50760,35420 h 190"
         inkscape:connector-curvature="0" />
      <path
         id="path802"
         d="m 50830,35260 v 420 l 20,50 50,30 h 50"
         inkscape:connector-curvature="0" />
      <path
         id="path804"
         d="m 50120,36260 160,500 170,-500"
         inkscape:connector-curvature="0" />
      <path
         id="path806"
         d="m 48000,33500 v 500"
         inkscape:connector-curvature="0" />
      <path
         id="path808"
         d="m 48000,38500 v -500"
         inkscape:connector-curvature="0" />
    </g>
    <g
       id="g816"
       style="fill:#000000;fill-opacity:1;stroke:#000000;stroke-width:100;stroke-linecap:round;stroke-linejoin:round;stroke-opacity:1">
      <circle
         id="circle814"
         r="200"
         cy="38500"
         cx="44500" />
    </g>
  </g>
</svg>
